<?xml version="1.0" encoding="UTF-8" standalone="no"?>
<svg width="96px" height="25px" viewBox="0 0 96 25" version="1.1" xmlns="http://www.w3.org/2000/svg" xmlns:xlink="http://www.w3.org/1999/xlink" xmlns:sketch="http://www.bohemiancoding.com/sketch/ns">
        <title></title>
        <desc></desc>        
    <defs></defs>
    <g id="Page-1" stroke="none" stroke-width="1" fill="none" fill-rule="evenodd" sketch:type="MSPage">
        <g id="Megagroup" sketch:type="MSArtboardGroup" transform="translate(-287.000000, -364.000000)" fill="#8F8F8F">
            <g id="m-dark-text3" sketch:type="MSLayerGroup" transform="translate(287.000000, 364.000000)">
                <text id="megagroup.ru" sketch:type="MSTextLayer" font-family="Arial" font-size="11" font-weight="normal">
                    <tspan x="28" y="16">megagroup.ru</tspan>
                </text>
                <g id="Logo-Copy-2" sketch:type="MSShapeGroup">
                    <path d="M7,8.36766434 L7,8 L2.01778454,8 L1.7967545,9 L6.84314154,9 L7,8.36766434 L7,8.36766434 Z M6.59507953,10 L1.57572446,10 L1.35469442,11 L6.34701751,11 L6.59507953,10 L6.59507953,10 Z M6.09895549,12 L1.13366437,12 L0.91263433,13 L5.85089348,13 L6.09895549,12 L6.09895549,12 Z M0.691604287,14 L0.287008274,15.640625 L5.17120348,15.640625 L5.60283146,14 L0.691604287,14 Z" id="Rectangle-1"></path>
                    <path d="M0.0765117973,18.0366961 L0.0600738463,18.116688 C-0.258390743,19.6664317 0.721012096,21.2496139 2.2473373,21.654255 L11.8839005,24.2089859 C13.4066331,24.6126746 14.9056166,23.6858573 15.2239495,22.1367542 L17.1740288,12.6470869 L15.1315596,16.609573 C14.7325819,17.3838631 14.3040502,18.0366958 12.8411318,18.0366958 C11.3782134,18.0366958 11.2156669,17.3838631 11.1417821,16.609573 L10.5950348,11.4780037 C10.5802579,11.2806357 10.5654809,11.0984498 10.4915962,11.0984498 C10.3586036,11.0984498 10.2994958,11.3413643 10.2847188,11.4476394 L9.03260616,18.0358833 L7.0301536,18.0358833 L7.0301536,18.0366961 L0.0765117973,18.0366961 L0.0765117973,18.0366961 Z M3.08020469,2.8196508 C3.39853765,1.27054767 4.94953196,0.690809427 6.47226463,1.09449818 L16.1088278,3.64922905 C17.635153,4.05387021 18.6145558,5.63705233 18.2960913,7.18679604 L18.248961,7.41614585 C17.618423,7.58570217 16.9704571,7.98473561 16.4910394,8.92740125 L13.8755186,14.0893349 C13.8016338,14.2411564 13.6243104,14.5751639 13.4617639,14.5751639 C13.2992174,14.5751639 13.2696635,14.2715207 13.2548865,14.0893349 L12.6561283,8.58032216 C12.4805094,6.92633803 11.1453518,6.94674119 10.2584052,6.9421407 L2.23338772,6.94051484 L3.08020469,2.8196508 Z" id="Rectangle-2"></path>
                </g>
            </g>
        </g>
    </g>
</svg>
